<svg width="83" height="84" viewBox="0 0 83 84" fill="none" xmlns="http://www.w3.org/2000/svg">
<path d="M67.7045 79.6136C67.7045 81.691 66.0205 83.375 63.9432 83.375C61.8658 83.375 60.1818 81.691 60.1818 79.6136C60.1818 77.5363 61.8658 75.8523 63.9432 75.8523C66.0205 75.8523 67.7045 77.5363 67.7045 79.6136Z" fill="#8EC5FF"/>
<path d="M82.75 64.5682C82.75 66.6455 81.066 68.3295 78.9886 68.3295C76.9113 68.3295 75.2273 66.6455 75.2273 64.5682C75.2273 62.4908 76.9113 60.8068 78.9886 60.8068C81.066 60.8068 82.75 62.4908 82.75 64.5682Z" fill="#8EC5FF"/>
<path d="M7.52273 19.4318C7.52273 21.5092 5.83871 23.1932 3.76136 23.1932C1.68402 23.1932 0 21.5092 0 19.4318C0 17.3545 1.68402 15.6705 3.76136 15.6705C5.83871 15.6705 7.52273 17.3545 7.52273 19.4318Z" fill="#8EC5FF"/>
<path d="M22.5682 4.38636C22.5682 6.46371 20.8842 8.14773 18.8068 8.14773C16.7295 8.14773 15.0455 6.46371 15.0455 4.38636C15.0455 2.30902 16.7295 0.625 18.8068 0.625C20.8842 0.625 22.5682 2.30902 22.5682 4.38636Z" fill="#8EC5FF"/>
<path fill-rule="evenodd" clip-rule="evenodd" d="M30.1083 80.7973C29.4545 82.5489 27.5046 83.4389 25.753 82.7851C14.4071 78.5504 5.29346 69.7593 0.638432 58.6359C-0.0833239 56.9112 0.729705 54.928 2.45438 54.2062C4.17906 53.4845 6.16228 54.2975 6.88404 56.0222C10.8184 65.4237 18.5305 72.8627 28.1205 76.4421C29.8721 77.0958 30.7621 79.0458 30.1083 80.7973Z" fill="#8EC5FF"/>
<path fill-rule="evenodd" clip-rule="evenodd" d="M80.1747 30.794C78.4236 31.4491 76.473 30.5607 75.8179 28.8096C72.2103 19.1668 64.6844 11.4228 55.1767 7.51772C53.4472 6.8074 52.6211 4.82961 53.3314 3.10019C54.0417 1.37077 56.0195 0.544627 57.749 1.25495C68.9934 5.87336 77.889 15.0234 82.1591 26.4372C82.8142 28.1883 81.9258 30.1389 80.1747 30.794Z" fill="#8EC5FF"/>
<path fill-rule="evenodd" clip-rule="evenodd" d="M42.1273 18.6795C43.8542 18.6795 45.3874 19.7846 45.9335 21.4229L50.3143 34.5653L63.4566 38.946C65.0949 39.4921 66.2 41.0253 66.2 42.7523C66.2 44.4792 65.0949 46.0124 63.4566 46.5585L50.3143 50.9393L45.9335 64.0816C45.3874 65.7199 43.8542 66.825 42.1273 66.825C40.4003 66.825 38.8671 65.7199 38.321 64.0816L33.9403 50.9393L20.7979 46.5585C19.1596 46.0124 18.0545 44.4792 18.0545 42.7523C18.0545 41.0253 19.1596 39.4921 20.7979 38.946L33.9403 34.5653L38.321 21.4229C38.8671 19.7846 40.4003 18.6795 42.1273 18.6795Z" fill="#2B7FFF"/>
</svg>
