<svg width="489" height="122" viewBox="0 0 489 122" fill="none" xmlns="http://www.w3.org/2000/svg">
<path d="M67.7045 98.6136C67.7045 100.691 66.0205 102.375 63.9432 102.375C61.8658 102.375 60.1818 100.691 60.1818 98.6136C60.1818 96.5363 61.8658 94.8523 63.9432 94.8523C66.0205 94.8523 67.7045 96.5363 67.7045 98.6136Z" fill="#8EC5FF"/>
<path d="M82.75 83.5682C82.75 85.6455 81.066 87.3295 78.9886 87.3295C76.9113 87.3295 75.2273 85.6455 75.2273 83.5682C75.2273 81.4908 76.9113 79.8068 78.9886 79.8068C81.066 79.8068 82.75 81.4908 82.75 83.5682Z" fill="#8EC5FF"/>
<path d="M7.52272 38.4318C7.52272 40.5092 5.8387 42.1932 3.76136 42.1932C1.68402 42.1932 -3.8147e-06 40.5092 -3.8147e-06 38.4318C-3.8147e-06 36.3545 1.68402 34.6705 3.76136 34.6705C5.8387 34.6705 7.52272 36.3545 7.52272 38.4318Z" fill="#8EC5FF"/>
<path d="M22.5682 23.3864C22.5682 25.4637 20.8842 27.1477 18.8068 27.1477C16.7295 27.1477 15.0455 25.4637 15.0455 23.3864C15.0455 21.309 16.7295 19.625 18.8068 19.625C20.8842 19.625 22.5682 21.309 22.5682 23.3864Z" fill="#8EC5FF"/>
<path fill-rule="evenodd" clip-rule="evenodd" d="M30.1083 99.7973C29.4545 101.549 27.5046 102.439 25.753 101.785C14.4071 97.5504 5.29345 88.7593 0.638429 77.6359C-0.0833278 75.9112 0.729701 73.928 2.45438 73.2062C4.17905 72.4845 6.16228 73.2975 6.88404 75.0222C10.8184 84.4237 18.5305 91.8627 28.1205 95.4421C29.8721 96.0958 30.7621 98.0458 30.1083 99.7973Z" fill="#8EC5FF"/>
<path fill-rule="evenodd" clip-rule="evenodd" d="M80.1747 49.794C78.4236 50.4491 76.473 49.5607 75.8179 47.8096C72.2103 38.1668 64.6844 30.4228 55.1767 26.5177C53.4472 25.8074 52.6211 23.8296 53.3314 22.1002C54.0417 20.3708 56.0195 19.5446 57.749 20.2549C68.9934 24.8734 77.889 34.0234 82.1591 45.4372C82.8142 47.1883 81.9258 49.1389 80.1747 49.794Z" fill="#8EC5FF"/>
<path fill-rule="evenodd" clip-rule="evenodd" d="M42.1273 37.6795C43.8542 37.6795 45.3874 38.7846 45.9335 40.4229L50.3143 53.5653L63.4566 57.946C65.0949 58.4921 66.2 60.0253 66.2 61.7523C66.2 63.4792 65.0949 65.0124 63.4566 65.5585L50.3143 69.9393L45.9335 83.0816C45.3874 84.7199 43.8542 85.825 42.1273 85.825C40.4003 85.825 38.8671 84.7199 38.321 83.0816L33.9403 69.9393L20.7979 65.5585C19.1596 65.0124 18.0545 63.4792 18.0545 61.7523C18.0545 60.0253 19.1596 58.4921 20.7979 57.946L33.9403 53.5653L38.321 40.4229C38.8671 38.7846 40.4003 37.6795 42.1273 37.6795Z" fill="#2B7FFF"/>
<path d="M112.67 91V36.6H147.39V46.2H123.71V62.2H143.07V71.8H123.71V91H112.67ZM155.042 55.56C157.869 51.88 162.589 50.04 169.202 50.04C175.815 50.04 180.535 51.88 183.362 55.56C186.189 59.1867 187.602 64.3067 187.602 70.92C187.602 84.9467 181.469 91.96 169.202 91.96C156.935 91.96 150.802 84.9467 150.802 70.92C150.802 64.3067 152.215 59.1867 155.042 55.56ZM163.282 79.96C164.402 81.88 166.375 82.84 169.202 82.84C172.029 82.84 173.975 81.88 175.042 79.96C176.162 78.04 176.722 75.0267 176.722 70.92C176.722 66.8133 176.162 63.8267 175.042 61.96C173.975 60.0933 172.029 59.16 169.202 59.16C166.375 59.16 164.402 60.0933 163.282 61.96C162.215 63.8267 161.682 66.8133 161.682 70.92C161.682 75.0267 162.215 78.04 163.282 79.96ZM195.46 91V51H206.1V55.24C210.58 52.5733 214.847 50.84 218.9 50.04V60.84C214.58 61.7467 210.873 62.68 207.78 63.64L206.18 64.2V91H195.46ZM235.946 91H225.226V51H235.866V53.24C239.546 51.1067 242.692 50.04 245.306 50.04C249.626 50.04 252.959 51.2933 255.306 53.8C260.212 51.2933 264.692 50.04 268.746 50.04C274.026 50.04 277.679 51.5867 279.706 54.68C281.786 57.72 282.826 62.6 282.826 69.32V91H272.106V69.64C272.106 66.2267 271.732 63.72 270.986 62.12C270.239 60.4667 268.746 59.64 266.506 59.64C264.799 59.64 262.719 60.0133 260.266 60.76L259.066 61.16C259.279 65.16 259.386 68.2 259.386 70.28V91H248.666V70.44C248.666 66.4933 248.319 63.72 247.626 62.12C246.932 60.4667 245.412 59.64 243.066 59.64C240.986 59.64 238.932 60.0133 236.906 60.76L235.946 61.08V91ZM293.295 36.6H314.655C320.308 36.6 324.548 37.7467 327.375 40.04C330.202 42.28 331.615 45.9333 331.615 51C331.615 54.04 331.162 56.4667 330.255 58.28C329.348 60.04 327.802 61.6133 325.615 63C328.015 64.0133 329.775 65.48 330.895 67.4C332.068 69.32 332.655 71.9867 332.655 75.4C332.655 80.68 331.108 84.6 328.015 87.16C324.922 89.72 320.575 91 314.975 91H293.295V36.6ZM314.415 68.28H304.335V81.56H314.415C316.815 81.56 318.575 81.08 319.695 80.12C320.868 79.16 321.455 77.4 321.455 74.84C321.455 70.4667 319.108 68.28 314.415 68.28ZM314.095 46.04H304.335V59H314.175C318.335 59 320.415 56.84 320.415 52.52C320.415 48.2 318.308 46.04 314.095 46.04ZM343.245 55.56C346.072 51.88 350.792 50.04 357.405 50.04C364.018 50.04 368.738 51.88 371.565 55.56C374.392 59.1867 375.805 64.3067 375.805 70.92C375.805 84.9467 369.672 91.96 357.405 91.96C345.138 91.96 339.005 84.9467 339.005 70.92C339.005 64.3067 340.418 59.1867 343.245 55.56ZM351.485 79.96C352.605 81.88 354.578 82.84 357.405 82.84C360.232 82.84 362.178 81.88 363.245 79.96C364.365 78.04 364.925 75.0267 364.925 70.92C364.925 66.8133 364.365 63.8267 363.245 61.96C362.178 60.0933 360.232 59.16 357.405 59.16C354.578 59.16 352.605 60.0933 351.485 61.96C350.418 63.8267 349.885 66.8133 349.885 70.92C349.885 75.0267 350.418 78.04 351.485 79.96ZM385.823 55.56C388.65 51.88 393.37 50.04 399.983 50.04C406.596 50.04 411.316 51.88 414.143 55.56C416.97 59.1867 418.383 64.3067 418.383 70.92C418.383 84.9467 412.25 91.96 399.983 91.96C387.716 91.96 381.583 84.9467 381.583 70.92C381.583 64.3067 382.996 59.1867 385.823 55.56ZM394.063 79.96C395.183 81.88 397.156 82.84 399.983 82.84C402.81 82.84 404.756 81.88 405.823 79.96C406.943 78.04 407.503 75.0267 407.503 70.92C407.503 66.8133 406.943 63.8267 405.823 61.96C404.756 60.0933 402.81 59.16 399.983 59.16C397.156 59.16 395.183 60.0933 394.063 61.96C392.996 63.8267 392.463 66.8133 392.463 70.92C392.463 75.0267 392.996 78.04 394.063 79.96ZM454.961 61C448.348 60.1467 443.708 59.72 441.041 59.72C438.428 59.72 436.721 59.96 435.921 60.44C435.175 60.92 434.801 61.6933 434.801 62.76C434.801 63.7733 435.308 64.4933 436.321 64.92C437.388 65.2933 440.055 65.88 444.321 66.68C448.641 67.4267 451.708 68.68 453.521 70.44C455.335 72.2 456.241 75.0533 456.241 79C456.241 87.64 450.881 91.96 440.161 91.96C436.641 91.96 432.375 91.48 427.361 90.52L424.801 90.04L425.121 81.08C431.735 81.9333 436.321 82.36 438.881 82.36C441.495 82.36 443.255 82.12 444.161 81.64C445.121 81.1067 445.601 80.3333 445.601 79.32C445.601 78.3067 445.095 77.56 444.081 77.08C443.121 76.6 440.561 76.0133 436.401 75.32C432.295 74.6267 429.228 73.4533 427.201 71.8C425.175 70.1467 424.161 67.2133 424.161 63C424.161 58.7333 425.601 55.5333 428.481 53.4C431.361 51.2133 435.068 50.12 439.601 50.12C442.748 50.12 447.041 50.6267 452.481 51.64L455.121 52.12L454.961 61ZM486.136 60.12H476.296V76.52C476.296 78.12 476.322 79.2667 476.376 79.96C476.482 80.6 476.776 81.16 477.256 81.64C477.789 82.12 478.589 82.36 479.656 82.36L485.736 82.2L486.216 90.76C482.642 91.56 479.922 91.96 478.056 91.96C473.256 91.96 469.976 90.8933 468.216 88.76C466.456 86.5733 465.576 82.5733 465.576 76.76V60.12H460.856V51H465.576V39.88H476.296V51H486.136V60.12Z" fill="#2B7FFF"/>
</svg>
